<svg xmlns="http://www.w3.org/2000/svg" width="813.206" height="265.396" viewBox="0 0 813.206 265.396"><g transform="translate(0.042 0.021)"><g transform="translate(-0.042 -0.022)"><path d="M.08,60.464c.011-13.619,8.331-24.173,22.164-27.9Q73.891,18.73,125.538,5.01c5-1.336,9.981-2.706,14.989-4.008,16.044-4.154,31.741,4.693,35.715,20.109,4.031,15.651-5.041,30.764-21.119,35.064Q127.268,63.63,99.389,71.018,68.109,79.371,36.817,87.7C17.719,92.755.08,79.641.08,60.464Z" transform="translate(0.056 0.022)" fill="#0106ff"></path><path d="M28.074,167.6C14.2,167.164,2.127,156.745.263,143.339c-2.043-14.731,6.332-27.9,20.693-31.875,18.234-5.052,36.546-9.824,54.836-14.7,22.006-5.861,43.956-11.913,66.03-17.482a28.46,28.46,0,0,1,14.6,55.016Q96.451,150.4,36.405,166.266C33.688,166.973,30.881,167.164,28.074,167.6Z" transform="translate(0.042 9.64)" fill="#0106ff"></path><path d="M228.48,224.158l15.494-8.982c2.919,7.152,7.7,12.115,15.236,13.058a42.362,42.362,0,0,0,13.136-.64,8.252,8.252,0,0,0,1.3-15.719c-5.457-2.246-11.115-3.975-16.617-6.1a132.525,132.525,0,0,1-13.013-5.513c-15.651-7.859-13.967-30.786-3.2-39.69,16.651-13.754,43.788-7.567,53.118,12.912l-14.6,8.522c-.865-1.3-1.617-2.5-2.425-3.671a17.5,17.5,0,0,0-18.661-7.309c-4.581,1.022-7.354,3.627-7.859,7.332-.483,3.918,1.123,7.062,5.614,8.982,5.266,2.246,10.857,3.817,16.179,6a106.663,106.663,0,0,1,14.776,6.905c12.8,7.747,12.014,28.6,1.673,37.894-12.654,11.351-44.293,12.249-56.565-7.085C230.849,229.031,229.85,226.752,228.48,224.158Z" transform="translate(28.097 18.834)"></path><path d="M59.07,213.243a29.248,29.248,0,1,1-8.45-20.971,29.5,29.5,0,0,1,8.45,20.971Z" transform="translate(0.056 22.563)" fill="#0106ff"></path><path d="M368.98,209.823c0,19-15.023,33.751-34.211,33.683a33.8,33.8,0,1,1,.123-67.5C354.159,176.005,369.036,190.815,368.98,209.823ZM334.892,227.08c10.1,0,17.178-7.163,17.19-17.291S345,192.364,335,192.342s-17.111,7.152-17.145,17.347S324.855,227.091,334.892,227.08Z" transform="translate(36.791 21.627)"></path><path d="M607.957,209.541a33.436,33.436,0,0,1-33.852,34.009c-19.087.079-33.829-14.495-33.885-33.391,0-19.626,14.54-34.323,33.93-34.188C593.248,176.1,607.923,190.678,607.957,209.541Zm-34.1,17.5c10.1,0,17.28-7.073,17.336-17.156s-7.13-17.482-17.021-17.549-17.257,7.163-17.336,17.223,7.062,17.459,17.021,17.482Z" transform="translate(66.37 21.628)"></path><path d="M442.228,176.23h16.55v65.121H442.52c-.168-1.639-.326-3.211-.561-5.614a23.455,23.455,0,0,1-15.2,7.612c-13.473,1.7-26.048-6.737-26.946-20.21-1.055-15.517-.247-31.157-.247-47h16.067c.09,1.583.236,3.133.236,4.693,0,11.351-.135,22.7.067,34.042.157,9.308,5.917,14.023,15.068,12.811,6.737-.876,11.1-6.085,11.228-13.731.135-10.9,0-21.815,0-32.718Z" transform="translate(49.065 21.649)"></path><path d="M628.871,243.365H612.58V178.042h15.932c.225,1.7.427,3.256.719,5.468,4.671-4.356,9.678-6.894,15.809-7.388,13.608-1.123,24.982,6.029,26.172,19.4,1.392,15.719.326,31.7.326,47.785h-16.3V204.753c0-8.241-4.132-12.889-11.621-13.271-7.758-.393-13.675,4.289-14.3,12-.539,6.456-.371,12.968-.427,19.446C628.77,229.679,628.871,236.427,628.871,243.365Z" transform="translate(75.254 21.633)"></path><path d="M728.537,189.848l-13.709,7.5c-3.088-4.749-7.118-7.612-12.687-5.962-1.92.573-8.073,4.963-.943,8.836,5.333,2.133,10.981,3.469,16.381,5.445,8.679,3.166,12.553,9.117,12.418,18.279-.1,6.737-2.964,12.115-8.881,15.292-11.374,6.108-22.983,6.018-34.357-.056a20.816,20.816,0,0,1-9.409-11.037l14.2-7.994c2.246,4.772,5.771,7.859,11.1,8.106a18.425,18.425,0,0,0,6.939-.865,5.614,5.614,0,0,0,3.144-3.728,5.356,5.356,0,0,0-2.436-4.132,46.673,46.673,0,0,0-8.219-3.234c-3.368-1.123-6.737-2.066-10.1-3.368-6.737-2.582-11.228-7.175-11.868-14.6-.741-8.05,2.246-14.383,9.33-18.627C702.781,171.782,722.25,176.622,728.537,189.848Z" transform="translate(83.206 21.617)"></path><path d="M475.171,195.147H464.46v-16.2h10.5V158.466l16.931-5.176V178.6h14.383v16.471H492.013v27.878c0,5.794,1.819,7.567,7.736,7.725h6.49v14.865c-7.141,1.37-14.181,1.291-20.94-1.37-6.164-2.414-9.072-7.635-9.443-13.855-.584-9.7-.539-19.435-.752-29.192C475.093,199.3,475.171,197.426,475.171,195.147Z" transform="translate(57.069 18.844)"></path><path d="M281.209,47.26v8.6H238.465V88.567h35.929v8.926H238.151V139.63H229V47.26Z" transform="translate(28.161 5.826)"></path><path d="M389.086,153.66v92.37H372.84V153.66Z" transform="translate(45.821 18.889)"></path><path d="M389.72,71.927h8.814v7.556c4.637-4.311,9.4-7.657,15.505-8.982,17.392-3.907,31.875,6.22,32.56,23.668.573,14.124.112,28.283.112,42.755h-8.982V97.055c0-9.858-4.772-16.415-12.99-18.054-10.509-2.111-20.648,2.47-23.994,11.329a34.806,34.806,0,0,0-2.043,11.228c-.269,10.307-.09,20.625-.09,30.944v4.558H389.63Z" transform="translate(47.882 8.577)"></path><path d="M452.39,136.857l25.195-33.29L452.435,70.3c6.546-1.4,11.306-.7,15.079,5.288,4.491,7.2,10.172,13.687,15.562,20.76,5.266-6.916,10.734-13.193,15.112-20.143,3.75-5.939,8.387-7.646,15.494-5.872l-25.139,33.223,25.217,33.3c-6.085.73-10.947,1.28-14.753-4.839-4.558-7.354-10.363-13.945-15.932-21.265-5.412,7.118-11.127,13.552-15.562,20.771C463.741,137.677,458.846,137.845,452.39,136.857Z" transform="translate(55.587 8.577)"></path><path d="M513.93,176.22h16.044v66.94H513.93Z" transform="translate(63.143 21.659)"></path><path d="M313.19,47.25h8.342v92.516H313.19Z" transform="translate(38.497 5.825)"></path><path d="M338.67,47.22h8.353v92.561H338.67Z" transform="translate(41.626 5.821)"></path><path d="M295.915,136.962H287.55V70h8.365Z" transform="translate(35.35 8.618)"></path><path d="M372.457,137.147h-6.535a13.292,13.292,0,0,1-1.853-.314V70.14h8.387Z" transform="translate(44.744 8.635)"></path><path d="M532.3,163.565a10.228,10.228,0,1,1-10.419-10.195A10.1,10.1,0,0,1,532.3,163.565Z" transform="translate(62.886 18.853)"></path><path d="M292.1,47.071a6.737,6.737,0,0,1,6.411,6.535,6.815,6.815,0,0,1-6.467,6.523,6.535,6.535,0,1,1,.056-13.058Z" transform="translate(35.069 5.802)"></path><path d="M375.037,53.421a6.377,6.377,0,0,1-6.243,6.737,6.669,6.669,0,0,1-6.624-6.4,6.579,6.579,0,0,1,6.332-6.647,6.254,6.254,0,0,1,6.535,6.31Z" transform="translate(44.511 5.807)"></path></g></g></svg>