<svg xmlns="http://www.w3.org/2000/svg" id="Layer_1" data-name="Layer 1" viewBox="0 0 250 250"><defs><style>      .cls-1 {        fill: #0106ff;      }    </style></defs><title>SM post</title><g><path class="cls-1" d="M204.62,150.79V125q0-14.45,0-28.91c0-24.36,0-49.56,0-74.34C204.61,9.52,197,1.9,184.83,1.9c-43.61,0-82.75,0-119.65,0a25.44,25.44,0,0,0-5.56.48c-8.89,2.06-14.2,9.32-14.2,19.43,0,67.23-.05,136.62-.06,206.25,0,12.52,7.46,20,20,20h82.74c12.27,0,24.66,0,36.92,0H185c6,0,10.74-1.84,14.42-5.64,3.55-3.65,5.2-8.24,5.19-14.43C204.61,202.29,204.62,176.11,204.62,150.79ZM94.57,11c0-.8,0-1.61,0-2.42A1.83,1.83,0,0,1,94.71,8c0-.1.07-.21.1-.33l0-.09h60.5v.13c0,1.2,0,2.41,0,3.58.05,2.68.11,5.45-.11,8.15-.27,3.4-3.31,5.68-7.56,5.69-9.47,0-19.11,0-28.42,0H104.92c-1.1,0-2.2,0-3.3-.05a6.79,6.79,0,0,1-7-7.1C94.53,15.7,94.55,13.31,94.57,11ZM199,228.4a19.66,19.66,0,0,1-.29,4.2c-1.35,6.1-6.36,9.88-13.08,9.89H64.69C56.27,242.48,51,237.32,51,229c0-72,0-142.07,0-208.29,0-7.91,5.37-13.23,13.35-13.25H88.94v.12c0,1.13,0,2.22,0,3.29,0,2.26,0,4.4,0,6.54.11,8.15,5.15,13.23,13.15,13.27,15.43.08,30.87.08,45.86,0,7.9,0,12.91-5,13.08-13,0-2.2,0-4.39,0-6.71,0-1.09,0-2.2,0-3.34V7.49h23.54c9.56,0,14.4,4.89,14.4,14.52,0,61,0,133.21,0,205.73C199,228,199,228.18,199,228.4Z"></path><path class="cls-1" d="M173.19,54.53c0-7.86-4.18-12-12.06-12h-72C81,42.51,76.8,46.64,76.8,54.79c0,25.46,0,49,0,72,0,8,4.22,12.2,12.2,12.2,23.2,0,47.42,0,72,0,8,0,12.19-4.22,12.2-12.2q0-12.6,0-25.21V80C173.2,71.65,173.21,63,173.19,54.53ZM93.74,133.25l13.91-21.2.11.16,13.64,21Zm34.37,0,0-.06-6.31-9.71,0-.07L136,101.79l20.41,31.5Zm39.59-6.09c0,3.67-1.09,5.07-4.65,6l-.09,0-2.05-3.16c-1.41-2.15-2.82-4.32-4.23-6.49l-4.9-7.56c-3.27-5.05-6.66-10.28-10-15.41-1.6-2.45-3.68-3.81-5.85-3.81a5.74,5.74,0,0,0-3.13,1,9.64,9.64,0,0,0-2.72,2.81c-2.65,4-5.26,8-8,12.28l-3.53,5.41-.11.16-2-3.06-2.7-4.13c-1.8-2.75-3.91-4.2-6.12-4.2a5.54,5.54,0,0,0-3.15,1,10.67,10.67,0,0,0-2.84,3l-10,15.29-4.42,6.76H87.1c-3.45-.69-4.73-2.27-4.74-5.83,0-22.48,0-46.44,0-73.24,0-4.09,2-6.07,6.1-6.08,7.71,0,15.55,0,23.13,0h49.6c4.68,0,6.51,1.82,6.51,6.46C167.71,79,167.71,103.49,167.7,127.2Z"></path><path class="cls-1" d="M183.63,170c.06,2.32-1.87,2.78-3,2.84-.5,0-1,0-1.5,0H70.19a4.52,4.52,0,0,1-3.3-1.14,2.12,2.12,0,0,1-.51-1.7c.24-2.42,2-2.76,3.92-2.76h54.85q26.64,0,53.28,0H179c.5,0,1,0,1.52,0C181.64,167.31,183.58,167.71,183.63,170Z"></path><path class="cls-1" d="M101.15,195.13A10.55,10.55,0,0,0,95,186.54c-3.57-1.58-7.64-1-11.18,1.6l-.07.05-.07-.05-.48-.33-.89-.58a10.86,10.86,0,0,0-5.59-1.59,10.27,10.27,0,0,0-4.36,1,10.38,10.38,0,0,0-5.81,8c-.48,3.22.38,6.43,2.62,9.81,2.93,4.41,7.11,7.9,13.16,11a3.84,3.84,0,0,0,3,0c5.9-3,10.2-6.54,13.15-11A14,14,0,0,0,101.15,195.13Zm-5.75.93c-.33,1.87-1,4.56-2.47,6.3a57.3,57.3,0,0,1-6.06,5.7c-1,.83-2,1.69-3,2.61l-.08.07-.08-.07c-1-.92-2-1.77-3-2.59a55.19,55.19,0,0,1-6-5.54c-1.52-1.72-2.23-4.38-2.63-6.23-.45-2.06.71-3.91,3-4.71a4.66,4.66,0,0,1,5.62,1.61c1.3,1.64,2.23,2.59,3.12,2.59h0c.9,0,1.81-1,3.08-2.59a4.6,4.6,0,0,1,5.36-1.69C94.55,192.25,95.78,194,95.4,196.06Z"></path><path class="cls-1" d="M137.15,186.77a17.17,17.17,0,0,0-16.36-.07c-4.79,2.42-7.34,6.22-7.59,11.27.12,5.32,2.77,9.2,7.9,11.53a6.62,6.62,0,0,1,4,4c.78,2.23,2,3.23,3.84,3.23H129c1.81,0,3-1,3.73-3.09a6.91,6.91,0,0,1,4.12-4.21c5-2.33,7.7-6.2,7.78-11.21S142.16,189.35,137.15,186.77Zm-4,18.3a21.41,21.41,0,0,0-3.06,1.57c-.41.24-.8.47-1.17.67l-.06,0-.06,0-1-.6-2.74-1.57c-.43-.24-.88-.45-1.32-.66a11.55,11.55,0,0,1-2.46-1.43,6.49,6.49,0,0,1-2.51-5.19,6.6,6.6,0,0,1,2.83-5.1,12.11,12.11,0,0,1,11.53-1.69c3.46,1.11,5.83,3.85,5.88,6.83S136.83,203.65,133.18,205.07Z"></path><path class="cls-1" d="M145.58,153.65c0,.83-.94,2-1.89,2.74a3.3,3.3,0,0,1-2,.25l-.7,0H70.84c-3,0-4.44-.88-4.49-2.73a2.26,2.26,0,0,1,.6-1.76c.67-.69,1.93-1,3.75-1h70.19c.24,0,.5,0,.75,0a3,3,0,0,1,1.7.17C143.85,151.52,145.53,152.65,145.58,153.65Z"></path><path class="cls-1" d="M134.25,229.84c0,2.22-1.69,2.68-3.07,2.68H118.87c-1.38,0-3-.47-3.08-2.67a2.72,2.72,0,0,1,.67-2,3.14,3.14,0,0,1,2.3-.79h12.5a3.16,3.16,0,0,1,2.32.79A2.71,2.71,0,0,1,134.25,229.84Z"></path><path class="cls-1" d="M133.79,16.43c-.16,1.89-1.3,2.73-3.69,2.73q-11.13,0-22.25,0c-2.38,0-3.58-.95-3.59-2.81a2.63,2.63,0,0,1,.69-2,4,4,0,0,1,2.86-.88h14.64c2.49,0,5.08,0,7.62,0a4.2,4.2,0,0,1,3.15,1.06A2.32,2.32,0,0,1,133.79,16.43Z"></path><path class="cls-1" d="M145.79,16.25c.07,2.1-1.57,2.74-3,2.9-2-.22-3-1.16-2.94-2.85a2.57,2.57,0,0,1,2.8-2.73h.18a3,3,0,0,1,2.13.73A2.67,2.67,0,0,1,145.79,16.25Z"></path><path class="cls-1" d="M111.64,61.45h-.1a12.21,12.21,0,0,0,.12,24.42h.18A12.28,12.28,0,0,0,123.9,73.48,12.08,12.08,0,0,0,111.64,61.45Zm4.88,16.72a6.76,6.76,0,0,1-4.81,2h0a6.61,6.61,0,0,1-4.71-2,6.47,6.47,0,0,1-1.92-4.63,6.67,6.67,0,0,1,2-4.7,6.52,6.52,0,0,1,4.63-2h0a6.93,6.93,0,0,1,6.7,6.65A6.37,6.37,0,0,1,116.52,78.17Z"></path><path class="cls-1" d="M157.1,83.5a6.38,6.38,0,0,0-2,1.48c-.33.3-.66.62-1,.89s-.48.4-.71.6c-.66.58-1.35,1.19-2,1.19h0a3.73,3.73,0,0,1-2-1.14c-.24-.21-.5-.42-.75-.6s-.73-.6-1.09-.9a8.69,8.69,0,0,0-2.15-1.53c-1.65-.73-2.28-1.71-2-3.17A2.48,2.48,0,0,1,145.84,78a2.56,2.56,0,0,1,.47,0,21.58,21.58,0,0,1,3.53,1c.51.17,1,.35,1.58.51h.08l1.29-.46a20.5,20.5,0,0,1,3.29-1,2.85,2.85,0,0,1,2.19.35,2.75,2.75,0,0,1,1.06,1.83C159.6,81.8,158.91,82.81,157.1,83.5Z"></path></g></svg>