<svg xmlns="http://www.w3.org/2000/svg" id="Layer_1" data-name="Layer 1" viewBox="0 0 250 250"><defs><style>      .cls-1 {        fill: #0106ff;      }    </style></defs><title>SMM</title><g><g><path class="cls-1" d="M226.46,185.78a8.65,8.65,0,0,0-1-3.7c-1.41-2.74-3.86-4.1-7.49-4.15-4.3-.06-8.69-.05-12.92,0h-9.16c-2.94,0-6,0-9,0-5.06.1-8.35,3.46-8.37,8.54,0,10.65-.05,21.06,0,31.33a7.86,7.86,0,0,0,8.2,8.11h20.51c3.77,0,7.53,0,11.3,0a7.81,7.81,0,0,0,8-7.84C226.58,207.67,226.57,196.8,226.46,185.78Zm-3.7,30.91a7.32,7.32,0,0,1-.83,3.49c-1.1,2-3.21,2-4.57,2H188c-4.19,0-5.68-1.52-5.69-5.7q0-14.59,0-29.16c0-4,1.61-5.65,5.55-5.67,9.72,0,19.61,0,29.4,0,3.95,0,5.57,1.66,5.58,5.64C222.8,196,222.81,206.27,222.76,216.69Z"></path><path class="cls-1" d="M168.89,119.5a6.27,6.27,0,0,1-2.21,4.37c-2.17,2.11-4.47,4.18-6.71,6.17l-3.1,2.8-1.68,1.52-4.61,4.22c-1.37,1.27-2.74,2.56-4.09,3.84l-4.41,4.14q-1.61,1.49-3.25,2.92L137,151.1a3,3,0,0,1-3.38.67,2.87,2.87,0,0,1-1.83-2.82c0-1.69,0-3.39,0-5.1,0-1.46,0-2.92,0-4.37,0-.67-.05-1.33-.1-2.13,0-.37,0-.77-.07-1.22l-.07-1.38-1.38-.07-1-.08c-.47,0-.91-.08-1.37-.08a6.39,6.39,0,0,0-.75,0c-1.29.15-2.56.34-3.85.53-1.57.23-3.19.47-4.78.63a4.32,4.32,0,0,1-2.18-.23,1.49,1.49,0,0,1-.82-1.65,1.7,1.7,0,0,1,1.37-1.48,28.47,28.47,0,0,1,4.53-.84c3.76-.33,7.77-.66,11.77-.78a2.55,2.55,0,0,1,1.81.47,3,3,0,0,1,.63,2.1c0,1.33,0,2.66,0,4,0,1.1,0,2.21,0,3.31a14,14,0,0,0,.16,1.75c0,.25.06.5.08.78l.24,2.15,2-.94c2.78-1.33,24.72-21.35,26.36-24.06l.45-.73-.4-.78c-1.1-2.06-24-24-26.31-25.21l-1.91-1-.32,2.15c0,.22-.07.44-.11.67a10.4,10.4,0,0,0-.19,1.63c0,1.2,0,2.4,0,3.59s0,2.16,0,3.23c0,2.47-.12,2.58-2.61,3.13l-2.44.51c-1.24.24-2.51.51-3.78.82A49.75,49.75,0,0,0,108,117.14a47.59,47.59,0,0,0-12.79,14.94c-1,1.85-1.94,3.76-2.83,5.62l-.47,1a16,16,0,0,0-.67,1.78l-.42,1.19-1.4,3.89,3.59-2,.88-.49c.48-.27.87-.47,1.24-.73.8-.55,1.61-1.11,2.4-1.67,1.2-.83,2.38-1.65,3.58-2.45a1.85,1.85,0,0,1,1.7-.39,1.92,1.92,0,0,1,1.36,1.15,1.72,1.72,0,0,1-.44,1.59,4.59,4.59,0,0,1-1.05.93,51.25,51.25,0,0,0-10.56,8.8A4.53,4.53,0,0,1,88.41,152a3.86,3.86,0,0,1-3-1.51,3.33,3.33,0,0,1-.48-2.88,66.82,66.82,0,0,1,8.5-19.8,52.31,52.31,0,0,1,16.42-16.4,57.23,57.23,0,0,1,17.69-7.2c.73-.16,1.47-.35,2.19-.56a2.18,2.18,0,0,0,.85-.48l.29-.22.55-.4.07-.67c0-.21.05-.42.09-.66a18,18,0,0,0,.19-2.09c0-1.33,0-2.67,0-4,0-2,0-4.13.06-6.18A3.09,3.09,0,0,1,133,86.52a2.9,2.9,0,0,1,2.47-.48,4.4,4.4,0,0,1,1.8,1c2.4,2.16,4.93,4.52,7.95,7.43,2.69,2.59,5.39,5.21,8.07,7.81l8.35,8.08c.76.73,1.56,1.44,2.32,2.11.94.83,1.84,1.61,2.68,2.46A6.49,6.49,0,0,1,168.89,119.5Z"></path><path class="cls-1" d="M74.83,30.5a1.68,1.68,0,0,0-2.16.06c-.91.55-1.84,1-2.75,1.49l-1.16.6-.67.36-1.82-.86L64,31.07a9.13,9.13,0,0,0-5-1c-5.51.71-9,3.5-10.74,8.55-.17.51-.37,1-.58,1.58l-.82,2.16L45.47,42l-1.15-.27c-.82-.18-1.59-.35-2.35-.58-4.92-1.47-8.25-4.88-10.59-7.69a2.57,2.57,0,0,0-1.82-1.09h-.18c-.6.09-1.16.66-1.54,1.56-3.36,8-2.94,19.24,4.34,25.39a8.83,8.83,0,0,1,1.36,1.57c.14.21.3.41.45.62L35.12,63l-1.57.87a12.67,12.67,0,0,1-6.3,1.68h-.59a8.15,8.15,0,0,0-1.73.16,1.84,1.84,0,0,0-1.42,1.22,1.81,1.81,0,0,0,.55,1.73A6,6,0,0,0,26,69.9c7.59,3.35,14.07,4.38,20.39,3.26A28.89,28.89,0,0,0,62.55,64.9,31.08,31.08,0,0,0,71.3,43.5a8.13,8.13,0,0,1,1.62-4.94,14.38,14.38,0,0,0,2.66-6A1.79,1.79,0,0,0,74.83,30.5ZM62.1,59.74a24.83,24.83,0,0,1-16,9.59l-.62.11a18,18,0,0,1-3.46.41,11.14,11.14,0,0,1-3.26-.48l-3.24-1L39.36,66c.53-.33.91-.58,1.31-.82,1.16-.71,1.82-1.53,1.81-2.23s-.72-1.54-1.94-2.24c-.31-.18-.61-.36-.93-.53A28.35,28.35,0,0,1,36,57.94c-4.47-3.5-6.6-8.39-6.51-14.95a3.52,3.52,0,0,1,.38-1.38c.07-.15.15-.35.23-.57l.65-1.77,2.39,1.49,1.51.94a23.58,23.58,0,0,0,14,4.19c2.3-.09,2.55-.34,2.7-2.68a14,14,0,0,1,.81-4.49,7.86,7.86,0,0,1,12.06-3.25A7.09,7.09,0,0,1,67.63,42C67.44,49.31,65.69,55,62.1,59.74Z"></path><path class="cls-1" d="M215.77,25.8A1.9,1.9,0,0,1,214,27.75a10.47,10.47,0,0,1-1.74.11h-1.78c-.45,0-.9,0-1.35,0-4.23.15-7,2.47-7.65,6.35a52.07,52.07,0,0,0-.14,11.32l.12,2.11,2.53.16,2.49.15h1c.31,0,.63,0,.95,0,1.84.14,1.92.92,2,1.44a2,2,0,0,1-1.76,2.15,11,11,0,0,1-1.67.09c-.35,0-.71,0-1.05,0-.61,0-1.21.06-1.88.11l-2.29.15-.15,1.26c0,.33-.09.64-.13.95a14.62,14.62,0,0,0-.22,2.14c0,3.15,0,6.29,0,9.43,0,2.45,0,4.91,0,7.36a10.27,10.27,0,0,1-.17,2.3,1.86,1.86,0,0,1-1.77,1.48,2.11,2.11,0,0,1-1.74-1.81,14.67,14.67,0,0,1,0-1.51V68c0-3.81,0-7.64,0-11.45a18.87,18.87,0,0,0-.15-2.11c-.05-.34-.08-.7-.11-1.07L197.1,52,195.8,52l-1.19-.08c-.78,0-1.53-.08-2.24-.16l-.55-.06a7.61,7.61,0,0,1-2.09-.4,1.49,1.49,0,0,1-.9-1.9c.14-.74.44-1.17,1.54-1.3.77-.09,1.68,0,2.57-.07.6,0,1.19-.09,1.87-.15l2.24-.18.13-1.26c0-.33.07-.64.12-.92a16.77,16.77,0,0,0,.18-2l0-1.28c0-2,.07-4.07,0-6.12a11.46,11.46,0,0,1,3.77-8.68,11.2,11.2,0,0,1,7.45-3.34c.23,0,.45,0,.67,0a24.43,24.43,0,0,0,2.55.05c.66,0,1.28,0,1.88,0C215.53,24.28,215.71,25,215.77,25.8Z"></path><path class="cls-1" d="M68.62,198.25c-3.54-1.83-7-3.89-10.37-5.89-1.47-.88-3-1.76-4.43-2.62-1-.56-1.92-1.11-2.88-1.66-2-1.11-4-2.27-6-3.49a4,4,0,0,0-2.07-.6,3.33,3.33,0,0,0-1.52.36,3,3,0,0,0-1.68,2.44c0,.38-.09.77-.13,1.17a19.48,19.48,0,0,0-.19,2.06c0,2.85,0,5.69,0,8.54v3.11c0,1.15,0,2.31,0,3.46,0,2.84,0,5.78,0,8.64a9.89,9.89,0,0,0,.79,3.63,2.65,2.65,0,0,0,3.74,1.35,22.36,22.36,0,0,0,2.64-1.32l10.73-6.19,11.14-6.44a3.92,3.92,0,0,0,2.34-3.37A3.81,3.81,0,0,0,68.62,198.25Zm-4.46,4.48a100.38,100.38,0,0,1-9.14,5.5C54,208.8,53,209.44,52,210a53.05,53.05,0,0,1-5.62,3.1l-1.52.69-.56-1.57c-.85-2.45-.94-18.7-.12-21.47l.54-1.79,1.66.87c5.8,3.09,11.62,6.46,17.77,10.3l2,1.24Z"></path><path class="cls-1" d="M202.56,192.84h-.31a9,9,0,0,0-6.26,2.72,8.71,8.71,0,0,0-2.71,6.34c.11,5.56,3.81,9.29,9.23,9.29h0a9.12,9.12,0,0,0,6.62-2.58,9.38,9.38,0,0,0,2.57-6.74A8.92,8.92,0,0,0,202.56,192.84Zm3.7,13a5.42,5.42,0,0,1-3.74,1.62h-.1A5.76,5.76,0,0,1,197,202a5,5,0,0,1,1.38-3.67,5.59,5.59,0,0,1,4-1.64h.06a5.69,5.69,0,0,1,4,1.54A5.13,5.13,0,0,1,208,201.9,5.67,5.67,0,0,1,206.26,205.88Z"></path></g><path class="cls-1" d="M218,93.89a12.12,12.12,0,0,1,1.24-.64A47.58,47.58,0,0,0,237.18,80a49.32,49.32,0,0,0,6.92-10.7,45,45,0,0,0,3.69-11.74l0-.25a32.45,32.45,0,0,0,.55-5.69V47.06a34.29,34.29,0,0,0-1-8.11c-.07-.3-.13-.59-.2-.89l0-.13A45.79,45.79,0,0,0,238.54,20a47.21,47.21,0,0,0-27.9-17.55c-.7-.15-1.41-.36-2.08-.57l-.88-.26H194.25l-1.15.28c-.83.22-1.68.43-2.53.61a47,47,0,0,0-20.75,10.35,50.77,50.77,0,0,0-11.37,14.05,16.38,16.38,0,0,0-.76,1.63c-.13.33-.28.64-.42,1-.29.62-.56,1.21-.88,1.79a3.3,3.3,0,0,1-.53.68l-.33.38-.27.32-.42-.06-.61-.06a8.26,8.26,0,0,1-1.71-.26,87.85,87.85,0,0,0-20.34-3.76,148.62,148.62,0,0,0-14.93.21l-1.23.07A74.75,74.75,0,0,0,97.4,32.35a9.26,9.26,0,0,1-1.58.28,2.37,2.37,0,0,1-.76-.1l-.4-.09-.36-.07L94.12,32c-.2-.41-.41-.82-.64-1.23-.47-.88-1-1.8-1.38-2.77-2.54-5.65-6.51-10.66-12.53-15.78A46.46,46.46,0,0,0,58.16,2.19c-.53-.1-1-.25-1.58-.4l-.69-.19H42.46l-.55.16c-.48.14-1,.28-1.49.39A48.26,48.26,0,0,0,5.71,29.6C2,37.67.84,46.4,2.12,56.26A45.64,45.64,0,0,0,8.51,73.9,45.06,45.06,0,0,0,21.08,87.51a62.06,62.06,0,0,0,6.36,3.84c.93.51,1.85,1,2.76,1.55.43.26.88.48,1.37.72l.91.48.5.26-.1.56c-.06.31-.11.61-.17.92a13.64,13.64,0,0,1-.41,2,86.41,86.41,0,0,0-3.7,20.59,96.24,96.24,0,0,0,3.83,33.86,12,12,0,0,1,.33,1.73c0,.22.05.44.09.67l.09.55-.51.25c-24.12,12-33.87,30.13-29.81,55.35,5.07,19.47,17.62,31.84,37.29,36.68,24.61,3.53,43.05-6.71,54.75-30.47l.24-.5.55.08,3.28.41A257.34,257.34,0,0,0,128.55,219a113.47,113.47,0,0,0,22.29-1.87c1.37-.29,2.65-.59,3.82-.92l.61-.17.29.57c.17.35.39.87.61,1.35s.32.76.43.94c.34.68.67,1.37,1,2.07a32.82,32.82,0,0,0,2.06,3.89c1.68,2.59,3.57,5.21,5.78,8a2.81,2.81,0,0,0,2.46,1.14,2.74,2.74,0,0,0,2.17-1.46c.52-.95.53-1.73-.85-3.28a43.36,43.36,0,0,1-7-10.46,42,42,0,0,1-3.36-25.38,42.41,42.41,0,0,1,48.85-34.67,40.77,40.77,0,0,1,25.64,14.66,41.71,41.71,0,0,1,9.26,34,40.16,40.16,0,0,1-18.9,28.95c-11.92,7.6-25,8.84-38.88,3.67l-.66-.25a10.05,10.05,0,0,0-1.54-.53,2.53,2.53,0,0,0-.56-.06,2.79,2.79,0,0,0-2.46,1.49,2.24,2.24,0,0,0,.71,2.8,7.26,7.26,0,0,0,2,1.26,47.57,47.57,0,0,0,28.39,2.55A46.3,46.3,0,0,0,237,231.7a48.09,48.09,0,0,0,10.39-20.52l0-.11a38.28,38.28,0,0,0,1-8.51v-4.93a25.8,25.8,0,0,0-.53-5l0-.1A47.6,47.6,0,0,0,234.55,167a50.36,50.36,0,0,0-15.1-10.37l-1.16-.55-1.43-.7.18-.62c3.18-11.34,4.65-20.83,4.61-29.89A101.92,101.92,0,0,0,217,95.12l-.18-.59.54-.3ZM78.46,231.59A40.38,40.38,0,0,1,49.16,243q-.73,0-1.47,0A40.21,40.21,0,0,1,20,231.27a42.39,42.39,0,0,1,29.47-73.13H50a42.6,42.6,0,0,1,29.77,12.93,42.16,42.16,0,0,1,12.09,30.21A43,43,0,0,1,78.46,231.59ZM216.29,128.87A86.25,86.25,0,0,1,212.23,152a3.54,3.54,0,0,1-.49.92c-.08.14-.18.28-.27.44l-.27.45-.52-.08c-17.28-2.81-31.92,1.62-43.5,13.15s-16,26.46-13.24,44.35l.12.67-.66.19c-1,.26-2,.51-3,.73-.51.12-1,.22-1.56.32l-.2,0-1.44.24a118.6,118.6,0,0,1-18.4,1.25,255.52,255.52,0,0,1-25.52-1.44l-1.16-.12-.89-.1-.92-.11-3.49-.41-.9-.12.12-.77c2.71-18-1.75-33.35-12.9-44.55-11.75-11.77-26-16.13-43.73-13.31l-.57.09-.25-.53c-.11-.25-.23-.5-.37-.75a12.42,12.42,0,0,1-.74-1.71,72.46,72.46,0,0,1-3.15-16.13c-.37-4.59-.53-9-.48-13.17a81.71,81.71,0,0,1,3.44-22,18.47,18.47,0,0,1,.72-2l.06-.15a2.32,2.32,0,0,1,.43-.64c.08-.09.16-.2.26-.33l.27-.34.42,0,1.05.1c.77.06,1.59.12,2.4.22a47.35,47.35,0,0,0,35.39-9.33A27.64,27.64,0,0,0,82,83.85c1.47-1.57.86-2.65.27-3.33a2.34,2.34,0,0,0-3.53-.44,14.76,14.76,0,0,0-1.67,1.37,20.61,20.61,0,0,1-1.67,1.4C61.19,93,46.1,94.46,30.53,87.24a40.41,40.41,0,0,1-19.21-19A37.69,37.69,0,0,1,7,50.86c0-5,.17-9.19,1.45-13.45a42.56,42.56,0,0,1,9.82-17.26,42.05,42.05,0,0,1,16.1-10.8A39.92,39.92,0,0,1,47.17,6.81a42.3,42.3,0,0,1,44.47,38A40.24,40.24,0,0,1,90.18,61c-.13.39-.26.79-.4,1.18A16.26,16.26,0,0,0,89.23,64,8.29,8.29,0,0,0,89,66.36a2.41,2.41,0,0,0,2,2.18,2.24,2.24,0,0,0,2.45-1.21,16.38,16.38,0,0,0,1-2.2l0-.13c2.74-7.34,3.43-15.21,2.1-24,0-.31-.08-.63-.13-1l-.13-1.26.49-.23c.24-.11.48-.24.71-.36a10.81,10.81,0,0,1,1.69-.75,70.74,70.74,0,0,1,16.12-3.19c3.71-.26,8.56-.55,13.42-.47a84,84,0,0,1,22,3.49,19.9,19.9,0,0,1,2,.8l.09,0a1.79,1.79,0,0,1,.63.5l.27.26.29.29-.06.4c-2.85,17.16,1.58,31.76,13.2,43.38s26,16,43.73,13.25l.6-.09.23.56c.12.3.25.59.39.88a11,11,0,0,1,.74,1.91c1.58,6.07,2.91,11.57,3.14,17.34.06,1.2.13,2.38.19,3.56C216.24,123.07,216.4,126,216.29,128.87Zm-15.67-37.2h-.68a41.73,41.73,0,0,1-16.08-3.57,42.93,42.93,0,0,1-13.67-9.52,42.3,42.3,0,0,1-11.93-30.46,42.86,42.86,0,0,1,13.53-30A40.33,40.33,0,0,1,201.08,6.86c10.58-.36,21.28,4,29.32,12a42.41,42.41,0,0,1-29.78,72.82Z"></path></g></svg>